<?xml version="1.0" encoding="utf-8"?>
<!-- Generator: Adobe Illustrator 24.1.2, SVG Export Plug-In . SVG Version: 6.00 Build 0)  -->
<svg version="1.1" id="Слой_1" xmlns="http://www.w3.org/2000/svg" xmlns:xlink="http://www.w3.org/1999/xlink" x="0px" y="0px"
	 viewBox="0 0 500 500" style="enable-background:new 0 0 500 500;" xml:space="preserve">
<style type="text/css">
	.st0{fill:#FFFFFF;}
</style>
<image style="display:none;overflow:visible;" width="512" height="512" xlink:href="../../../../../ЗАГРУЗКИ/double-arrow.png"  transform="matrix(0.75 0 0 0.75 61 58)">
</image>
<g>
	<path class="st0" d="M387.1,64.9L221.4,230.6c-10.7,10.7-10.7,28,0,38.7l3.8,3.8c10.7,10.7,28,10.7,38.7,0l165.8-165.8
		c10.7-10.7,10.7-28,0-38.7l-3.8-3.8C415.2,54.2,397.8,54.2,387.1,64.9z"/>
	<path class="st0" d="M429.9,391.8L264.2,226c-10.7-10.7-28-10.7-38.7,0l-3.8,3.8c-10.7,10.7-10.7,28,0,38.7l165.8,165.8
		c10.7,10.7,28,10.7,38.7,0l3.8-3.8C440.6,419.8,440.6,402.5,429.9,391.8z"/>
</g>
<g>
	<path class="st0" d="M245.3,65.4L79.5,231.2c-10.7,10.7-10.7,28,0,38.7l3.8,3.8c10.7,10.7,28,10.7,38.7,0l165.8-165.8
		c10.7-10.7,10.7-28,0-38.7l-3.8-3.8C273.3,54.7,256,54.7,245.3,65.4z"/>
	<path class="st0" d="M288.1,392.3L122.3,226.5c-10.7-10.7-28-10.7-38.7,0l-3.8,3.8c-10.7,10.7-10.7,28,0,38.7l165.8,165.8
		c10.7,10.7,28,10.7,38.7,0l3.8-3.8C298.8,420.3,298.8,403,288.1,392.3z"/>
</g>
</svg>
