<?xml version="1.0" encoding="utf-8"?>
<!-- Generator: Adobe Illustrator 24.1.2, SVG Export Plug-In . SVG Version: 6.00 Build 0)  -->
<svg version="1.1" id="Слой_1" xmlns="http://www.w3.org/2000/svg" xmlns:xlink="http://www.w3.org/1999/xlink" x="0px" y="0px"
	 viewBox="0 0 1400 900" style="enable-background:new 0 0 1400 900;" xml:space="preserve">
<style type="text/css">
	.st0{clip-path:url(#SVGID_2_);fill:#FEFEFE;}
	.st1{clip-path:url(#SVGID_2_);}
	.st2{clip-path:url(#SVGID_4_);}
	.st3{clip-path:url(#SVGID_4_);fill-rule:evenodd;clip-rule:evenodd;}
	.st4{font-family:'Oswald-Light';}
	.st5{font-size:22px;}
	.st6{clip-path:url(#SVGID_6_);}
	.st7{clip-path:url(#SVGID_6_);fill:#010002;}
	.st8{clip-path:url(#SVGID_8_);fill:#1D262D;}
	.st9{fill:none;stroke:#EEC062;stroke-miterlimit:10;}
	.st10{fill:#EEC062;}
</style>
<g>
	<g>
		<defs>
			<rect id="SVGID_1_" x="82" y="147" width="500" height="500"/>
		</defs>
		<clipPath id="SVGID_2_">
			<use xlink:href="#SVGID_1_"  style="overflow:visible;"/>
		</clipPath>
		<rect x="82" y="147" class="st0" width="500" height="500"/>
		<g class="st1">
			<defs>
				<rect id="SVGID_3_" x="82" y="147" width="500" height="500"/>
			</defs>
			<clipPath id="SVGID_4_">
				<use xlink:href="#SVGID_3_"  style="overflow:visible;"/>
			</clipPath>
			<path class="st2" d="M184.6,282.2h-30.3c-1.8,0-3.3,1.5-3.3,3.3v30.3c0,1.9,1.5,3.4,3.3,3.4h30.3c1.8,0,3.3-1.5,3.3-3.4v-30.3
				C188,283.7,186.5,282.2,184.6,282.2 M162.4,314.2c0,0.5-0.4,1-1,1h-4.1c-0.5,0-1-0.4-1-1v-17.4c0-0.5,0.4-1,1-1h4.1
				c0.5,0,1,0.4,1,1V314.2z M159.4,294.2c-2.2,0-3.9-1.8-3.9-3.9s1.8-3.9,3.9-3.9c2.2,0,3.9,1.8,3.9,3.9
				C163.3,292.4,161.5,294.2,159.4,294.2 M184.1,314.3c0,0.5-0.4,0.9-0.9,0.9h-4.5c-0.5,0-0.9-0.4-0.9-0.9v-8.2
				c0-1.2,0.4-5.3-3.2-5.3c-2.7,0-3.3,2.8-3.4,4.1v9.4c0,0.5-0.4,0.9-0.9,0.9H166c-0.5,0-0.9-0.4-0.9-0.9v-17.5
				c0-0.5,0.4-0.9,0.9-0.9h4.3c0.5,0,0.9,0.4,0.9,0.9v1.5c1-1.5,2.5-2.7,5.7-2.7c7.1,0,7.1,6.7,7.1,10.3V314.3z"/>
			<path class="st2" d="M169.5,342.5c-23,0-41.7-18.7-41.7-41.7c0-23,18.7-41.7,41.7-41.7c2.8,0,5.6,0.3,8.4,0.8
				c1.5,0.3,3,0.7,4.5,1.2c0.7,0.2,1.1,1,0.9,1.8c-0.2,0.7-1,1.1-1.8,0.9c-1.4-0.4-2.8-0.8-4.2-1.1c-2.6-0.5-5.2-0.8-7.8-0.8
				c-21.5,0-38.9,17.5-38.9,38.9c0,21.5,17.5,38.9,38.9,38.9s38.9-17.5,38.9-38.9c0-6.4-1.6-12.7-4.6-18.3c-0.4-0.7-0.1-1.5,0.6-1.9
				c0.7-0.4,1.5-0.1,1.9,0.6c3.2,6,4.9,12.8,4.9,19.6C211.2,323.8,192.5,342.5,169.5,342.5"/>
			<path class="st2" d="M197.7,273.4c-0.4,0-0.7-0.1-1-0.4c-1-1-2.1-1.9-3.1-2.8c-0.8-0.7-1.7-1.3-2.6-1.9c-0.6-0.4-0.8-1.3-0.4-1.9
				c0.4-0.6,1.3-0.8,1.9-0.4c1,0.6,1.9,1.3,2.8,2c1.2,0.9,2.3,1.9,3.4,3c0.6,0.5,0.6,1.4,0,2C198.5,273.2,198.1,273.4,197.7,273.4"
				/>
			<path class="st2" d="M518,312.1c-6.6-1.1-9.5-7.8-9.6-8.1c0,0,0,0,0-0.1c-0.3-0.7-0.4-1.2-0.2-1.7c0.4-0.8,1.7-1.3,2.6-1.6
				c0.3-0.1,0.5-0.2,0.7-0.2c0.9-0.4,1.5-0.7,2-1.2c0.5-0.5,0.6-1,0.6-1.3c0-0.8-0.6-1.5-1.6-1.8c-0.3-0.1-0.7-0.2-1.1-0.2
				c-0.3,0-0.6,0-1,0.2c-0.8,0.4-1.5,0.6-2,0.6c-0.3,0-0.5-0.1-0.7-0.1c0-0.3,0-0.6,0.1-0.9l0-0.1c0.2-3.3,0.5-7.5-0.6-9.9
				c-0.8-1.7-1.8-3.1-3-4.3c-1-1-2.2-1.8-3.6-2.4c-2.3-1-4.5-1.2-5.6-1.2h0h-0.1c-0.3,0-0.8,0-0.8,0c-1.1,0-3.3,0.2-5.6,1.2
				c-1.3,0.6-2.5,1.4-3.6,2.4c-1.2,1.2-2.2,2.6-3,4.3c-1.1,2.5-0.8,6.6-0.6,9.9v0c0,0.4,0,0.7,0.1,1.1c-0.2,0.1-0.4,0.2-0.8,0.2
				c-0.6,0-1.4-0.2-2.2-0.6c-0.2-0.1-0.5-0.2-0.8-0.2c-0.5,0-1,0.1-1.5,0.4c-0.6,0.3-0.9,0.8-1,1.3c-0.1,0.3-0.1,1,0.7,1.7
				c0.4,0.4,1,0.7,1.8,1c0.2,0.1,0.5,0.2,0.7,0.2c0.9,0.3,2.3,0.7,2.6,1.6c0.2,0.4,0.1,1-0.2,1.7c0,0,0,0,0,0.1
				c-0.1,0.2-0.9,2-2.5,3.8c-0.9,1.1-1.9,1.9-3,2.6c-1.3,0.8-2.7,1.4-4.2,1.6c-0.6,0.1-1,0.6-1,1.2c0,0.2,0,0.3,0.1,0.5v0
				c0.2,0.5,0.8,1,1.7,1.4c1.1,0.5,2.7,0.9,4.8,1.2c0.1,0.2,0.2,0.7,0.3,1.1c0.1,0.4,0.2,0.7,0.3,1.1c0.1,0.4,0.5,1,1.3,1
				c0.3,0,0.7-0.1,1.1-0.2c0.6-0.1,1.5-0.3,2.6-0.3c0.6,0,1.2,0.1,1.8,0.2c1.2,0.2,2.2,0.9,3.4,1.8c1.8,1.2,3.7,2.6,6.8,2.6
				c0.1,0,0.2,0,0.2,0c0.1,0,0.2,0,0.4,0c3,0,5-1.4,6.8-2.6l0,0c1.2-0.8,2.2-1.6,3.4-1.8c0.6-0.1,1.2-0.2,1.8-0.2
				c1,0,1.8,0.1,2.6,0.3c0.5,0.1,0.8,0.1,1.1,0.1h0h0c0.6,0,1.1-0.3,1.3-0.9c0.1-0.4,0.2-0.8,0.3-1.1c0.1-0.3,0.2-0.8,0.3-1
				c2.1-0.3,3.7-0.7,4.8-1.2c0.9-0.4,1.4-0.9,1.7-1.4c0.1-0.2,0.1-0.3,0.1-0.5C519,312.7,518.6,312.2,518,312.1"/>
			<path class="st2" d="M494.5,342.5c-23,0-41.7-18.7-41.7-41.7c0-23,18.7-41.7,41.7-41.7c2.8,0,5.6,0.3,8.4,0.8
				c1.5,0.3,3,0.7,4.5,1.2c0.7,0.2,1.1,1,0.9,1.8c-0.2,0.7-1,1.1-1.8,0.9c-1.4-0.4-2.8-0.8-4.2-1.1c-2.6-0.5-5.2-0.8-7.8-0.8
				c-21.5,0-38.9,17.5-38.9,38.9c0,21.5,17.5,38.9,38.9,38.9c21.5,0,38.9-17.5,38.9-38.9c0-6.4-1.6-12.7-4.6-18.3
				c-0.4-0.7-0.1-1.5,0.6-1.9c0.7-0.4,1.5-0.1,1.9,0.6c3.2,6,4.9,12.8,4.9,19.6C536.2,323.8,517.5,342.5,494.5,342.5"/>
			<path class="st2" d="M522.7,273.4c-0.4,0-0.7-0.1-1-0.4c-1-1-2.1-1.9-3.1-2.8c-0.8-0.7-1.7-1.3-2.6-1.9c-0.6-0.4-0.8-1.3-0.4-1.9
				c0.4-0.6,1.3-0.8,1.9-0.4c1,0.6,1.9,1.3,2.8,2c1.2,0.9,2.3,1.9,3.4,3c0.6,0.5,0.6,1.4,0,2C523.5,273.2,523.1,273.4,522.7,273.4"
				/>
			<path class="st2" d="M172,422.4c-2.4-0.2-3.4-1.4-5.3-2.5c-1,5.5-2.3,10.7-6.1,13.5c-1.2-8.3,1.7-14.5,3.1-21.1
				c-2.3-3.8,0.3-11.6,5.1-9.7c5.9,2.3-5.1,14.3,2.3,15.8c7.7,1.6,10.9-13.4,6.1-18.3c-6.9-7-20.2-0.2-18.6,9.9
				c0.4,2.5,2.9,3.2,1,6.6c-4.4-1-5.8-4.5-5.6-9.2c0.3-7.6,6.9-13,13.5-13.7c8.4-0.9,16.2,3.1,17.3,10.9
				C186,413.5,181,423.1,172,422.4"/>
			<path class="st2" d="M169.5,455.2c-23,0-41.7-18.7-41.7-41.7c0-23,18.7-41.7,41.7-41.7c2.8,0,5.6,0.3,8.4,0.8
				c1.5,0.3,3,0.7,4.5,1.2c0.7,0.2,1.1,1,0.9,1.8c-0.2,0.7-1,1.1-1.8,0.9c-1.4-0.4-2.8-0.8-4.2-1.1c-2.6-0.5-5.2-0.8-7.8-0.8
				c-21.5,0-38.9,17.5-38.9,38.9c0,21.5,17.5,38.9,38.9,38.9s38.9-17.5,38.9-38.9c0-6.4-1.6-12.7-4.6-18.3c-0.4-0.7-0.1-1.5,0.6-1.9
				c0.7-0.4,1.5-0.1,1.9,0.6c3.2,6,4.9,12.8,4.9,19.6C211.2,436.5,192.5,455.2,169.5,455.2"/>
			<path class="st2" d="M197.7,386.1c-0.4,0-0.7-0.1-1-0.4c-1-1-2.1-1.9-3.1-2.8c-0.8-0.7-1.7-1.3-2.6-1.9c-0.6-0.4-0.8-1.3-0.4-1.9
				c0.4-0.6,1.3-0.8,1.9-0.4c1,0.6,1.9,1.3,2.8,2c1.2,0.9,2.3,1.9,3.4,3c0.6,0.5,0.6,1.4,0,2C198.5,385.9,198.1,386.1,197.7,386.1"
				/>
			<path class="st3" d="M287.1,416.9c-0.5-0.2-2.9-1.4-3.3-1.6c-0.4-0.2-0.8-0.2-1.1,0.2c-0.3,0.5-1.3,1.6-1.6,1.9
				c-0.3,0.3-0.6,0.4-1.1,0.1c-0.5-0.2-2-0.7-3.9-2.4c-1.5-1.3-2.4-2.9-2.7-3.4c-0.3-0.5,0-0.7,0.2-1c0.2-0.2,0.5-0.6,0.7-0.8
				c0.1-0.1,0.1-0.2,0.2-0.2c0.1-0.2,0.2-0.3,0.3-0.6c0.2-0.3,0.1-0.6,0-0.8c-0.1-0.2-1.1-2.6-1.5-3.6c-0.4-1-0.8-0.8-1.1-0.8
				c-0.3,0-0.6-0.1-0.9-0.1c-0.3,0-0.8,0.1-1.3,0.6c-0.4,0.5-1.7,1.7-1.7,4c0,0.6,0.1,1.1,0.2,1.6c0.5,1.7,1.6,3.1,1.7,3.4
				c0.2,0.3,3.4,5.4,8.3,7.3c4.9,1.9,4.9,1.3,5.8,1.2c0.9-0.1,2.9-1.2,3.3-2.3c0.4-1.1,0.4-2.1,0.3-2.3
				C287.9,417.3,287.6,417.2,287.1,416.9 M297.9,412.4c-0.3-10.7-9.1-19.2-19.9-19.2c-10.7,0-19.4,8.4-19.9,18.9c0,0.3,0,0.6,0,0.9
				c0,3.7,1,7.2,2.9,10.2l-3.6,10.6l11-3.5c2.9,1.6,6.1,2.5,9.6,2.5c11,0,19.9-8.8,19.9-19.7V412.4z"/>
			<path class="st2" d="M277.7,455.2c-23,0-41.7-18.7-41.7-41.7c0-23,18.7-41.7,41.7-41.7c2.8,0,5.6,0.3,8.4,0.8
				c1.5,0.3,3,0.7,4.5,1.2c0.7,0.2,1.1,1,0.9,1.8c-0.2,0.7-1,1.1-1.8,0.9c-1.4-0.4-2.8-0.8-4.2-1.1c-2.6-0.5-5.2-0.8-7.8-0.8
				c-21.5,0-38.9,17.5-38.9,38.9c0,21.5,17.5,38.9,38.9,38.9c21.5,0,38.9-17.5,38.9-38.9c0-6.4-1.6-12.7-4.6-18.3
				c-0.4-0.7-0.1-1.5,0.6-1.9c0.7-0.4,1.5-0.1,1.9,0.6c3.2,6,4.9,12.8,4.9,19.6C319.4,436.5,300.7,455.2,277.7,455.2"/>
			<path class="st2" d="M305.9,386.1c-0.4,0-0.7-0.1-1-0.4c-1-1-2.1-1.9-3.1-2.8c-0.8-0.7-1.7-1.3-2.6-1.9c-0.6-0.4-0.8-1.3-0.4-1.9
				c0.4-0.6,1.3-0.8,1.9-0.4c1,0.6,1.9,1.3,2.8,2c1.2,0.9,2.3,1.9,3.4,3c0.6,0.5,0.6,1.4,0,2C306.7,385.9,306.3,386.1,305.9,386.1"
				/>
			<path class="st2" d="M385.9,455.2c-23,0-41.7-18.7-41.7-41.7c0-23,18.7-41.7,41.7-41.7c2.8,0,5.6,0.3,8.4,0.8
				c1.5,0.3,3,0.7,4.5,1.2c0.7,0.2,1.1,1,0.9,1.8c-0.2,0.7-1,1.1-1.8,0.9c-1.4-0.4-2.8-0.8-4.2-1.1c-2.6-0.5-5.2-0.8-7.8-0.8
				c-21.5,0-38.9,17.5-38.9,38.9c0,21.5,17.5,38.9,38.9,38.9c21.5,0,38.9-17.5,38.9-38.9c0-6.4-1.6-12.7-4.6-18.3
				c-0.4-0.7-0.1-1.5,0.6-1.9c0.7-0.4,1.5-0.1,1.9,0.6c3.2,6,4.9,12.8,4.9,19.6C427.7,436.5,409,455.2,385.9,455.2"/>
			<path class="st2" d="M414.2,386.1c-0.4,0-0.7-0.1-1-0.4c-1-1-2.1-1.9-3.1-2.8c-0.8-0.7-1.7-1.3-2.6-1.9c-0.6-0.4-0.8-1.3-0.4-1.9
				c0.4-0.6,1.3-0.8,1.9-0.4c1,0.6,1.9,1.3,2.8,2c1.2,0.9,2.3,1.9,3.4,3c0.6,0.5,0.6,1.4,0,2C415,385.9,414.6,386.1,414.2,386.1"/>
			<path class="st2" d="M394.5,392.2h-17.1c-7,0-12.6,5.7-12.6,12.6V422c0,7,5.7,12.6,12.6,12.6h17.1c7,0,12.6-5.7,12.6-12.6v-17.1
				C407.2,397.9,401.5,392.2,394.5,392.2 M385.9,424.4c-6.1,0-11-4.9-11-11c0-6.1,4.9-11,11-11c6.1,0,11,4.9,11,11
				C396.9,419.5,392,424.4,385.9,424.4 M396.9,405.2c-1.5,0-2.6-1.2-2.6-2.6c0-1.5,1.2-2.6,2.6-2.6c1.5,0,2.6,1.2,2.6,2.6
				C399.6,404,398.4,405.2,396.9,405.2"/>
			<path class="st3" d="M392.4,300.3l-10.4,5.6v-8.6v-2.6l4.7,2.6L392.4,300.3z M404.8,292.7c0,0-0.4-2.8-1.5-4
				c-1.5-1.6-3.1-1.6-3.9-1.7c-5.4-0.4-13.5-0.4-13.5-0.4h0c0,0-8.1,0-13.5,0.4c-0.8,0.1-2.4,0.1-3.9,1.7c-1.2,1.2-1.5,4-1.5,4
				s-0.4,3.2-0.4,6.5v0.4v2.7c0,3.3,0.4,6.5,0.4,6.5s0.4,2.8,1.5,4c1.5,1.6,3.4,1.6,4.3,1.7c3.1,0.3,13.1,0.4,13.1,0.4
				s8.1,0,13.5-0.4c0.8-0.1,2.4-0.1,3.9-1.7c1.2-1.2,1.5-4,1.5-4s0.4-3.2,0.4-6.5v-2.5v-0.6C405.2,296,404.8,292.7,404.8,292.7"/>
			<path class="st2" d="M385.9,342.5c-23,0-41.7-18.7-41.7-41.7c0-23,18.7-41.7,41.7-41.7c2.8,0,5.6,0.3,8.4,0.8
				c1.5,0.3,3,0.7,4.5,1.2c0.7,0.2,1.1,1,0.9,1.8c-0.2,0.7-1,1.1-1.8,0.9c-1.4-0.4-2.8-0.8-4.2-1.1c-2.6-0.5-5.2-0.8-7.8-0.8
				c-21.5,0-38.9,17.5-38.9,38.9c0,21.5,17.5,38.9,38.9,38.9c21.5,0,38.9-17.5,38.9-38.9c0-6.4-1.6-12.7-4.6-18.3
				c-0.4-0.7-0.1-1.5,0.6-1.9c0.7-0.4,1.5-0.1,1.9,0.6c3.2,6,4.9,12.8,4.9,19.6C427.7,323.8,409,342.5,385.9,342.5"/>
			<path class="st2" d="M414.2,273.4c-0.4,0-0.7-0.1-1-0.4c-1-1-2.1-1.9-3.1-2.8c-0.8-0.7-1.7-1.3-2.6-1.9c-0.6-0.4-0.8-1.3-0.4-1.9
				c0.4-0.6,1.3-0.8,1.9-0.4c1,0.6,1.9,1.3,2.8,2c1.2,0.9,2.3,1.9,3.4,3c0.6,0.5,0.6,1.4,0,2C415,273.2,414.6,273.4,414.2,273.4"/>
			<path class="st3" d="M516.2,400.2c-1.6,0.7-3.3,1.2-5.1,1.4c1.8-1.1,3.2-2.8,3.9-4.9c-1.7,1-3.6,1.7-5.7,2.1
				c-1.6-1.7-4-2.8-6.5-2.8c-4.9,0-8.9,3.9-8.9,8.8c0,0.7,0.1,1.4,0.2,2c-7.4-0.4-14-3.9-18.4-9.2c-0.8,1.3-1.2,2.8-1.2,4.4
				c0,3,1.6,5.7,4,7.3c-1.5,0-2.8-0.4-4-1.1v0.1c0,1.1,0.2,2.2,0.6,3.2c1.1,2.8,3.5,4.8,6.6,5.4c-0.8,0.2-1.5,0.3-2.4,0.3
				c-0.6,0-1.1-0.1-1.7-0.1c1.1,3.5,4.4,6,8.3,6.1c-3,2.4-6.9,3.8-11.1,3.8c-0.7,0-1.4-0.1-2.1-0.1c4,2.5,8.6,3.9,13.7,3.9
				c13.9,0,22.5-9.7,24.7-19.7c0.4-1.8,0.6-3.6,0.6-5.3c0-0.4,0-0.8,0-1.1C513.5,403.5,515,401.9,516.2,400.2"/>
			<path class="st2" d="M494.5,455.2c-23,0-41.7-18.7-41.7-41.7c0-23,18.7-41.7,41.7-41.7c2.8,0,5.6,0.3,8.4,0.8
				c1.5,0.3,3,0.7,4.5,1.2c0.7,0.2,1.1,1,0.9,1.8c-0.2,0.7-1,1.1-1.8,0.9c-1.4-0.4-2.8-0.8-4.2-1.1c-2.6-0.5-5.2-0.8-7.8-0.8
				c-21.5,0-38.9,17.5-38.9,38.9c0,21.5,17.5,38.9,38.9,38.9c21.5,0,38.9-17.5,38.9-38.9c0-6.4-1.6-12.7-4.6-18.3
				c-0.4-0.7-0.1-1.5,0.6-1.9c0.7-0.4,1.5-0.1,1.9,0.6c3.2,6,4.9,12.8,4.9,19.6C536.2,436.5,517.5,455.2,494.5,455.2"/>
			<path class="st2" d="M522.7,386.1c-0.4,0-0.7-0.1-1-0.4c-1-1-2.1-1.9-3.1-2.8c-0.8-0.7-1.7-1.3-2.6-1.9c-0.6-0.4-0.8-1.3-0.4-1.9
				c0.4-0.6,1.3-0.8,1.9-0.4c1,0.6,1.9,1.3,2.8,2c1.2,0.9,2.3,1.9,3.4,3c0.6,0.5,0.6,1.4,0,2C523.5,385.9,523.1,386.1,522.7,386.1"
				/>
			<path class="st3" d="M280.9,292v-3.5c0-1.7,1.1-2.1,1.9-2.1h4.9V279l-6.7,0c-7.5,0-9.2,5.6-9.2,9.1v3.9h-4.3v5.3v3.4h4.4v21.8
				h8.7v-21.8h6.5l0.3-3.4l0.5-5.3H280.9z"/>
			<path class="st2" d="M277.7,342.5c-23,0-41.7-18.7-41.7-41.7c0-23,18.7-41.7,41.7-41.7c2.8,0,5.6,0.3,8.4,0.8
				c1.5,0.3,3,0.7,4.5,1.2c0.7,0.2,1.1,1,0.9,1.8c-0.2,0.7-1,1.1-1.8,0.9c-1.4-0.4-2.8-0.8-4.2-1.1c-2.6-0.5-5.2-0.8-7.8-0.8
				c-21.5,0-38.9,17.5-38.9,38.9c0,21.5,17.5,38.9,38.9,38.9c21.5,0,38.9-17.5,38.9-38.9c0-6.4-1.6-12.7-4.6-18.3
				c-0.4-0.7-0.1-1.5,0.6-1.9c0.7-0.4,1.5-0.1,1.9,0.6c3.2,6,4.9,12.8,4.9,19.6C319.4,323.8,300.7,342.5,277.7,342.5"/>
			<path class="st2" d="M305.9,273.4c-0.4,0-0.7-0.1-1-0.4c-1-1-2.1-1.9-3.1-2.8c-0.8-0.7-1.7-1.3-2.6-1.9c-0.6-0.4-0.8-1.3-0.4-1.9
				c0.4-0.6,1.3-0.8,1.9-0.4c1,0.6,1.9,1.3,2.8,2c1.2,0.9,2.3,1.9,3.4,3c0.6,0.5,0.6,1.4,0,2C306.7,273.2,306.3,273.4,305.9,273.4"
				/>
		</g>
		<g class="st1">
			<text transform="matrix(1 0 0 1 220.0181 219)" class="st4 st5">BLACK SOCIAL MEDIA LOGOS</text>
		</g>
		<g class="st1">
			<defs>
				<rect id="SVGID_5_" x="82" y="147" width="500" height="500"/>
			</defs>
			<clipPath id="SVGID_6_">
				<use xlink:href="#SVGID_5_"  style="overflow:visible;"/>
			</clipPath>
			<path class="st6" d="M494.5,565c-23,0-41.7-18.7-41.7-41.7c0-23,18.7-41.7,41.7-41.7c2.8,0,5.6,0.3,8.4,0.8
				c1.5,0.3,3,0.7,4.5,1.2c0.7,0.2,1.1,1,0.9,1.8c-0.2,0.7-1,1.1-1.8,0.9c-1.4-0.4-2.8-0.8-4.2-1.1c-2.6-0.5-5.2-0.8-7.8-0.8
				c-21.5,0-38.9,17.5-38.9,38.9c0,21.5,17.5,38.9,38.9,38.9c21.5,0,38.9-17.5,38.9-38.9c0-6.4-1.6-12.7-4.6-18.3
				c-0.4-0.7-0.1-1.5,0.6-1.9c0.7-0.4,1.5-0.1,1.9,0.6c3.2,6,4.9,12.8,4.9,19.6C536.2,546.3,517.5,565,494.5,565"/>
			<path class="st6" d="M522.7,495.9c-0.4,0-0.7-0.1-1-0.4c-1-1-2.1-1.9-3.1-2.8c-0.8-0.7-1.7-1.3-2.6-1.9c-0.6-0.4-0.8-1.3-0.4-1.9
				c0.4-0.6,1.3-0.8,1.9-0.4c1,0.6,1.9,1.3,2.8,2c1.2,0.9,2.3,1.9,3.4,3c0.6,0.5,0.6,1.4,0,2C523.5,495.8,523.1,495.9,522.7,495.9"
				/>
			<path class="st6" d="M516.8,506.5c-0.4-0.5-1.2-0.7-1.8-0.5l-41.7,15.1c-0.8,0.3-1.4,1-1.5,1.9c-0.1,0.9,0.3,1.7,1,2.2l5.7,3.9
				c0.8,0.5,1.7,0.6,2.5,0.1l6.1-3.2c0.6-0.3,1.2,0.5,0.6,1l-3.9,2.9c-0.6,0.5-1,1.2-1,2v6.7c0,0.7,0.4,1.4,1,1.7
				c0.6,0.3,1.4,0.3,2-0.1l4.2-2.8c0.2-0.1,0.4-0.1,0.6,0l4.1,2.8c0.4,0.3,0.9,0.4,1.3,0.4c0.2,0,0.3,0,0.5-0.1
				c0.6-0.1,1.2-0.5,1.5-1.1l18.9-31.1C517.3,507.8,517.3,507.1,516.8,506.5"/>
			<path class="st6" d="M385.9,565c-23,0-41.7-18.7-41.7-41.7c0-23,18.7-41.7,41.7-41.7c2.8,0,5.6,0.3,8.4,0.8
				c1.5,0.3,3,0.7,4.5,1.2c0.7,0.2,1.1,1,0.9,1.8c-0.2,0.7-1,1.1-1.8,0.9c-1.4-0.4-2.8-0.8-4.2-1.1c-2.6-0.5-5.2-0.8-7.8-0.8
				c-21.5,0-38.9,17.5-38.9,38.9c0,21.5,17.5,38.9,38.9,38.9c21.5,0,38.9-17.5,38.9-38.9c0-6.4-1.6-12.7-4.6-18.3
				c-0.4-0.7-0.1-1.5,0.6-1.9c0.7-0.4,1.5-0.1,1.9,0.6c3.2,6,4.9,12.8,4.9,19.6C427.7,546.3,409,565,385.9,565"/>
			<path class="st6" d="M414.2,495.9c-0.4,0-0.7-0.1-1-0.4c-1-1-2.1-1.9-3.1-2.8c-0.8-0.7-1.7-1.3-2.6-1.9c-0.6-0.4-0.8-1.3-0.4-1.9
				c0.4-0.6,1.3-0.8,1.9-0.4c1,0.6,1.9,1.3,2.8,2c1.2,0.9,2.3,1.9,3.4,3c0.6,0.5,0.6,1.4,0,2C415,495.8,414.6,495.9,414.2,495.9"/>
			<path class="st6" d="M389.3,535.4c-0.6-0.4-1.2-1-1.5-1.7c-0.2-0.6-0.2-1.9-0.2-4.1v-9.8h8.9V513h-8.9v-8.8h-5.5
				c-0.2,2-0.7,3.6-1.3,4.9c-0.7,1.3-1.5,2.4-2.6,3.3c-1.1,0.9-2.8,1.6-4.3,2.1v5.4h5.2v13.4c0,1.7,0.2,3.1,0.6,4
				c0.4,0.9,1,1.8,2,2.6c1,0.8,2.1,1.4,3.5,1.9c1.4,0.4,2.4,0.7,4.2,0.7c1.6,0,3-0.2,4.3-0.5c1.3-0.3,2.8-0.9,4.5-1.6v-6
				c-1.9,1.3-3.9,1.9-5.8,1.9C391.1,536.2,390.2,535.9,389.3,535.4"/>
			<path class="st6" d="M277.7,565c-23,0-41.7-18.7-41.7-41.7c0-23,18.7-41.7,41.7-41.7c2.8,0,5.6,0.3,8.4,0.8
				c1.5,0.3,3,0.7,4.5,1.2c0.7,0.2,1.1,1,0.9,1.8c-0.2,0.7-1,1.1-1.8,0.9c-1.4-0.4-2.8-0.8-4.2-1.1c-2.6-0.5-5.2-0.8-7.8-0.8
				c-21.5,0-38.9,17.5-38.9,38.9c0,21.5,17.5,38.9,38.9,38.9c21.5,0,38.9-17.5,38.9-38.9c0-6.4-1.6-12.7-4.6-18.3
				c-0.4-0.7-0.1-1.5,0.6-1.9c0.7-0.4,1.5-0.1,1.9,0.6c3.2,6,4.9,12.8,4.9,19.6C319.4,546.3,300.7,565,277.7,565"/>
			<path class="st6" d="M305.9,495.9c-0.4,0-0.7-0.1-1-0.4c-1-1-2.1-1.9-3.1-2.8c-0.8-0.7-1.7-1.3-2.6-1.9c-0.6-0.4-0.8-1.3-0.4-1.9
				c0.4-0.6,1.3-0.8,1.9-0.4c1,0.6,1.9,1.3,2.8,2c1.2,0.9,2.3,1.9,3.4,3c0.6,0.5,0.6,1.4,0,2C306.7,495.8,306.3,495.9,305.9,495.9"
				/>
			<path class="st7" d="M280.3,517.1c4-2.4,6.2,1,4.1,4.8c-2.1,3.9-3.9,6.4-4.9,6.4s-1.7-2.6-2.9-7.1c-1.2-4.7-1.2-13.1-6-12.1
				c-4.6,0.9-10.6,8.1-10.6,8.1l1.4,1.9c0,0,3-2.3,3.9-1.2c1,1.2,4.8,15.3,6,17.9c1.1,2.3,4.1,5.3,7.4,3.1
				c3.3-2.2,14.4-11.6,16.3-22.7C297.1,505.1,281.9,507.4,280.3,517.1"/>
			<path class="st6" d="M169.5,565c-23,0-41.7-18.7-41.7-41.7c0-23,18.7-41.7,41.7-41.7c2.8,0,5.6,0.3,8.4,0.8
				c1.5,0.3,3,0.7,4.5,1.2c0.7,0.2,1.1,1,0.9,1.8c-0.2,0.7-1,1.1-1.8,0.9c-1.4-0.4-2.8-0.8-4.2-1.1c-2.6-0.5-5.2-0.8-7.8-0.8
				c-21.5,0-38.9,17.5-38.9,38.9c0,21.5,17.5,38.9,38.9,38.9s38.9-17.5,38.9-38.9c0-6.4-1.6-12.7-4.6-18.3c-0.4-0.7-0.1-1.5,0.6-1.9
				c0.7-0.4,1.5-0.1,1.9,0.6c3.2,6,4.9,12.8,4.9,19.6C211.2,546.3,192.5,565,169.5,565"/>
			<path class="st6" d="M197.7,495.9c-0.4,0-0.7-0.1-1-0.4c-1-1-2.1-1.9-3.1-2.8c-0.8-0.7-1.7-1.3-2.6-1.9c-0.6-0.4-0.8-1.3-0.4-1.9
				c0.4-0.6,1.3-0.8,1.9-0.4c1,0.6,1.9,1.3,2.8,2c1.2,0.9,2.3,1.9,3.4,3c0.6,0.5,0.6,1.4,0,2C198.5,495.8,198.1,495.9,197.7,495.9"
				/>
			<path class="st6" d="M169.5,504.2c-10.5,0-19.1,8.6-19.1,19.1c0,10.5,8.6,19.1,19.1,19.1c10.5,0,19.1-8.6,19.1-19.1
				C188.6,512.7,180,504.2,169.5,504.2 M181.2,514.1c1.9,2.4,3,5.3,3.2,8.5c-2.2-0.5-4.2-0.7-6.1-0.7v0h0c-1.5,0-3,0.1-4.3,0.4
				c-0.3-0.8-0.7-1.6-1-2.3C175.9,518.6,178.8,516.8,181.2,514.1 M169.5,508.4c3.5,0,6.7,1.2,9.3,3.3c-2,2.3-4.5,4-7.3,5.2
				c-2-3.8-3.8-6.5-5.1-8.1C167.3,508.5,168.4,508.4,169.5,508.4 M162.9,509.9c1,1.2,3.1,3.9,5.3,8.1c-4.5,1.3-9,1.7-11.8,1.7
				c-0.1,0-0.2,0-0.2,0h0c-0.5,0-0.9,0-1.2,0C156.1,515.4,159,511.9,162.9,509.9 M154.6,523.3c0-0.1,0-0.1,0-0.2c0.4,0,1,0,1.6,0h0
				c3,0,8.2-0.3,13.5-1.9c0.3,0.6,0.6,1.3,0.9,2c-3.5,1.2-6.3,3.1-8.4,4.9c-2,1.8-3.3,3.6-4.1,4.8
				C155.9,530.3,154.6,526.9,154.6,523.3 M169.5,538.2c-3.3,0-6.4-1.1-8.9-2.9c0.5-0.9,1.7-2.5,3.5-4.3c1.9-1.8,4.4-3.6,7.7-4.7
				c1.1,3.2,2.2,6.8,2.9,10.9C173.1,537.8,171.3,538.2,169.5,538.2 M177.9,535.5c-0.8-3.7-1.7-7-2.8-10c1-0.1,2-0.2,3.1-0.2h0h0h0
				c1.8,0,3.7,0.2,5.8,0.7C183.4,530,181.1,533.4,177.9,535.5"/>
		</g>
		<g class="st1">
			<defs>
				<rect id="SVGID_7_" x="82" y="147" width="500" height="500"/>
			</defs>
			<clipPath id="SVGID_8_">
				<use xlink:href="#SVGID_7_"  style="overflow:visible;"/>
			</clipPath>
			<path class="st8" d="M342.1,612.5c-0.4,0.4-0.8,0.9-1.1,1.5l-0.5-0.2c-0.1-0.3-0.3-0.5-0.7-0.5c-0.3,0-0.6,0.3-0.5,0.7
				s0.3,0.6,0.7,0.5c0.1,0,0.1,0,0.2-0.1l0.5,0.2c-0.3,0.6-0.4,1.1-0.5,1.7l0.7,0.1c0.2-1.3,0.9-2.5,1.8-3.5L342.1,612.5z"/>
			<path class="st8" d="M347.6,610.2c-0.2,0-0.3,0-0.5,0l-0.1-0.6c0.2-0.2,0.3-0.4,0.3-0.6c0-0.4-0.4-0.7-0.8-0.6
				c-0.4,0-0.7,0.4-0.6,0.8c0,0.3,0.2,0.5,0.4,0.6l0.1,0.6c-0.7,0.1-1.4,0.3-2.1,0.6l0.3,0.7c0.9-0.4,1.9-0.7,3-0.7
				c0.5,0,1,0.1,1.5,0.2l0.2-0.7C348.7,610.2,348.1,610.2,347.6,610.2"/>
			<path class="st8" d="M354.2,612.7c0.3,0,0.6-0.3,0.5-0.7c0-0.3-0.3-0.6-0.7-0.5c-0.3,0-0.5,0.3-0.5,0.6l-0.4,0.4
				c-0.4-0.4-0.9-0.8-1.4-1.1l-0.4,0.6c1.1,0.7,2,1.7,2.6,2.9l0.7-0.3c-0.3-0.6-0.6-1.1-0.9-1.5l0.4-0.4
				C354.1,612.7,354.1,612.7,354.2,612.7"/>
			<path class="st8" d="M347,620.4c-0.4,0-0.8,0-1.2,0c-0.9,0-1.7-0.1-2.5-0.2c-0.4-0.1-0.8-0.2-1.3-0.3c1,1.9,3.1,3.1,5.4,3.1
				c2.9,0,5.3-1.9,6-4.5c-0.7,0.4-1.5,0.8-2.5,1.1C349.8,620,348.5,620.3,347,620.4"/>
			<path class="st8" d="M347.6,611.7c-3.4,0-6.1,2.7-6.1,5.9c0,0.4,0,0.8,0.1,1.3c0.7,0.5,2.7,0.9,5.3,0.7c2.9-0.2,5.3-1,6.7-2.2
				c0-0.2,0-0.4,0-0.6C353.2,613.9,350.6,611.7,347.6,611.7 M345.4,618.2c-1,0-1.8-0.8-1.8-1.8c0-1,0.8-1.8,1.8-1.8
				c1,0,1.8,0.8,1.8,1.8C347.3,617.4,346.5,618.2,345.4,618.2 M350.2,617.3c-0.8,0-1.4-0.6-1.4-1.4s0.6-1.4,1.4-1.4s1.4,0.6,1.4,1.4
				S350.9,617.3,350.2,617.3"/>
			<path class="st8" d="M363.6,613.5c-0.3-0.1-0.8-0.3-1.4-0.2c-0.6,0.1-0.8,0.3-0.8,1v0.9h2.2v1.7h-2.2v5.5h-1.9v-5.5h-1.3v-1.7
				h1.3v-0.9c0-1.7,0.9-2.8,2.6-2.8c0.6,0,1.2,0.1,1.6,0.3L363.6,613.5z"/>
			<path class="st8" d="M368.3,616.9c-0.2,0-0.4,0-0.5,0c-0.9,0-1.5,0.5-1.5,1.6v3.9h-1.9v-7.2h1.9v0.8c0.5-0.7,1.1-1,2-1
				c0.4,0,0.8,0.1,1.1,0.3L368.3,616.9z"/>
			<path class="st8" d="M376,618.8c0,0.2,0,0.5,0,0.7h-5.1c0.2,1,0.9,1.5,1.8,1.5c0.6,0,1.3-0.3,1.8-0.7l1.1,1.2
				c-0.8,0.7-1.8,1.1-3.1,1.1c-2.2,0-3.7-1.5-3.7-3.8c0-2.3,1.5-3.8,3.6-3.8C374.5,615,376,616.5,376,618.8 M370.9,618.1h3.2
				c-0.2-0.9-0.7-1.4-1.6-1.4C371.6,616.7,371,617.2,370.9,618.1"/>
			<path class="st8" d="M383.6,618.8c0,0.2,0,0.5,0,0.7h-5.1c0.2,1,0.9,1.5,1.8,1.5c0.6,0,1.3-0.3,1.8-0.7l1.1,1.2
				c-0.8,0.7-1.8,1.1-3.1,1.1c-2.2,0-3.7-1.5-3.7-3.8c0-2.3,1.5-3.8,3.6-3.8C382.2,615,383.6,616.5,383.6,618.8 M378.5,618.1h3.2
				c-0.2-0.9-0.7-1.4-1.6-1.4C379.2,616.7,378.7,617.2,378.5,618.1"/>
			<path class="st8" d="M392,618.8c0,2.2-1.5,3.8-3.5,3.8c-1,0-1.6-0.4-2.1-0.9v3.7h-1.9v-10.1h1.9v0.8c0.5-0.6,1.2-1,2.1-1
				C390.5,615,392,616.6,392,618.8 M386.3,618.8c0,1.1,0.7,2,1.8,2c1.1,0,1.9-0.9,1.9-2c0-1.1-0.7-2-1.9-2
				C387,616.8,386.3,617.6,386.3,618.8"/>
			<path class="st8" d="M395.1,612.8c0,0.7-0.5,1.2-1.2,1.2c-0.7,0-1.2-0.5-1.2-1.2c0-0.7,0.5-1.2,1.2-1.2
				C394.5,611.6,395.1,612.1,395.1,612.8 M394.8,622.4h-1.9v-7.2h1.9V622.4z"/>
			<polygon class="st8" points="398,617.7 400.7,615.2 403.1,615.2 399.6,618.6 403.1,622.4 400.7,622.4 398,619.5 398,622.4 
				396.1,622.4 396.1,611.7 398,611.7 			"/>
			<path class="st8" d="M266.4,622.3v-1.1c-0.5,0.7-1.4,1.2-2.4,1.2c-1.8,0-3.1-1.4-3.1-3.7c0-2.3,1.3-3.7,3.1-3.7
				c1,0,1.8,0.5,2.4,1.2v-3.8h1.1v9.8H266.4z M266.4,620.4v-3.2c-0.4-0.6-1.2-1.1-2.1-1.1c-1.4,0-2.3,1.2-2.3,2.7
				c0,1.6,0.9,2.7,2.3,2.7C265.2,621.5,266,621,266.4,620.4"/>
			<path class="st8" d="M268.9,618.7c0-2.1,1.5-3.7,3.5-3.7c2.1,0,3.4,1.7,3.4,3.8v0.3h-5.7c0.1,1.3,1,2.4,2.5,2.4
				c0.8,0,1.6-0.3,2.2-0.9l0.5,0.7c-0.7,0.7-1.7,1.1-2.8,1.1C270.4,622.5,268.9,621,268.9,618.7 M272.4,615.9
				c-1.5,0-2.3,1.3-2.3,2.4h4.6C274.7,617.3,274,615.9,272.4,615.9"/>
			<path class="st8" d="M276.6,621.4l0.6-0.8c0.5,0.5,1.4,1,2.3,1c1.1,0,1.7-0.5,1.7-1.2c0-1.7-4.4-0.7-4.4-3.3c0-1.1,1-2,2.6-2
				c1.2,0,2.1,0.5,2.6,1l-0.5,0.8c-0.4-0.5-1.2-0.9-2.1-0.9c-1,0-1.6,0.5-1.6,1.1c0,1.6,4.4,0.5,4.4,3.3c0,1.2-1,2.1-2.8,2.1
				C278.3,622.5,277.3,622.1,276.6,621.4"/>
			<path class="st8" d="M283.5,613.5c0-0.4,0.3-0.7,0.7-0.7c0.4,0,0.7,0.3,0.7,0.7c0,0.4-0.3,0.7-0.7,0.7
				C283.8,614.2,283.5,613.9,283.5,613.5 M283.7,615.2h1.1v7.1h-1.1V615.2z"/>
			<path class="st8" d="M286.6,624.1l0.6-0.8c0.6,0.7,1.3,1,2.3,1c1.2,0,2.3-0.6,2.3-2.1v-1c-0.5,0.7-1.4,1.3-2.4,1.3
				c-1.8,0-3.1-1.4-3.1-3.7c0-2.3,1.3-3.7,3.1-3.7c1,0,1.8,0.5,2.4,1.2v-1.1h1.1v6.9c0,2.3-1.6,3.1-3.4,3.1
				C288.2,625.2,287.4,624.9,286.6,624.1 M291.7,620.3v-3.1c-0.4-0.6-1.2-1.1-2.1-1.1c-1.4,0-2.3,1.1-2.3,2.7c0,1.6,0.9,2.7,2.3,2.7
				C290.5,621.4,291.3,620.9,291.7,620.3"/>
			<path class="st8" d="M299.4,622.3v-4.6c0-1.2-0.6-1.6-1.6-1.6c-0.9,0-1.7,0.5-2.1,1.1v5.2h-1.1v-7.1h1.1v1
				c0.5-0.6,1.5-1.2,2.5-1.2c1.5,0,2.3,0.7,2.3,2.3v5H299.4z"/>
			<path class="st8" d="M301.9,618.7c0-2.1,1.5-3.7,3.5-3.7c2.1,0,3.4,1.7,3.4,3.8v0.3h-5.7c0.1,1.3,1,2.4,2.5,2.4
				c0.8,0,1.6-0.3,2.2-0.9l0.5,0.7c-0.7,0.7-1.7,1.1-2.8,1.1C303.4,622.5,301.9,621,301.9,618.7 M305.4,615.9
				c-1.5,0-2.3,1.3-2.3,2.4h4.6C307.7,617.3,307,615.9,305.4,615.9"/>
			<path class="st8" d="M315.3,622.3v-1.1c-0.5,0.7-1.4,1.2-2.4,1.2c-1.8,0-3.1-1.4-3.1-3.7c0-2.3,1.3-3.7,3.1-3.7
				c1,0,1.8,0.5,2.4,1.2v-3.8h1.1v9.8H315.3z M315.3,620.4v-3.2c-0.4-0.6-1.2-1.1-2.1-1.1c-1.4,0-2.3,1.2-2.3,2.7
				c0,1.6,0.8,2.7,2.3,2.7C314.1,621.5,315,621,315.3,620.4"/>
			<path class="st8" d="M321.7,622.3v-9.8h1.1v3.8c0.6-0.8,1.4-1.2,2.4-1.2c1.8,0,3.1,1.5,3.1,3.7c0,2.3-1.3,3.7-3.1,3.7
				c-1,0-1.9-0.5-2.4-1.2v1.1H321.7z M324.9,621.5c1.4,0,2.3-1.2,2.3-2.7c0-1.6-0.8-2.7-2.3-2.7c-0.9,0-1.7,0.5-2.1,1.1v3.2
				C323.2,621,324,621.5,324.9,621.5"/>
			<path class="st8" d="M329.5,624.1c0.2,0.1,0.4,0.1,0.6,0.1c0.5,0,0.8-0.2,1.1-0.7l0.5-1.1l-3-7.1h1.2l2.4,5.8l2.3-5.8h1.2
				l-3.5,8.5c-0.4,1-1.1,1.4-2.1,1.4c-0.2,0-0.6,0-0.8-0.1L329.5,624.1z"/>
		</g>
	</g>
</g>
<path class="st9" d="M1124.5,472.7c-3.1-2.5-6.4-4.7-10-6.5"/>
<path class="st9" d="M1106.8,463c-5.7-1.9-11.9-3-18.3-3c-31.8,0-57.5,25.7-57.5,57.5c0,31.8,25.7,57.5,57.5,57.5
	s57.5-25.7,57.5-57.5c0-14.6-5.5-28-14.5-38.1"/>
<g>
	<polygon class="st10" points="1099.1,519.5 1078,533 1078,522 1100,507.5 	"/>
	<polygon class="st10" points="1066.2,514.8 1075.3,521.3 1086.9,518.2 1078.4,523.6 1093.5,534.5 1110.5,499.5 	"/>
</g>
<polygon class="st9" points="886.5,460.5 885.5,460.5 885.5,460.5 886.5,460.5 "/>
</svg>
