<?xml version="1.0" encoding="utf-8"?>
<!-- Generator: Adobe Illustrator 24.1.2, SVG Export Plug-In . SVG Version: 6.00 Build 0)  -->
<svg version="1.1" id="Слой_1" xmlns="http://www.w3.org/2000/svg" xmlns:xlink="http://www.w3.org/1999/xlink" x="0px" y="0px"
	 viewBox="0 0 500 500" style="enable-background:new 0 0 500 500;" xml:space="preserve">
<style type="text/css">
	.st0{fill:#EEC062;}
</style>
<g>
	<image style="overflow:visible;" width="512" height="512" xlink:href="check.png"  transform="matrix(0.8 0 0 0.8 45 45)">
	</image>
	<path class="st0" d="M445.2,155.8L213.8,387.2c-12.3,12.3-32.3,12.3-44.7,0l0,0c-12.3-12.3-12.3-32.3,0-44.7l231.3-231.3
		c12.3-12.3,32.3-12.3,44.7,0l0,0C457.5,123.5,457.5,143.5,445.2,155.8z"/>
	<path class="st0" d="M169.1,387.1L54.8,272.8c-12.3-12.3-12.3-32.3,0-44.7l0,0c12.3-12.3,32.3-12.3,44.7,0l114.3,114.3
		c12.3,12.3,12.3,32.3,0,44.7l0,0C201.5,399.5,181.5,399.5,169.1,387.1z"/>
</g>
</svg>
